<svg xmlns="http://www.w3.org/2000/svg" width="790" height="391">
<line x1="59" y1="28" x2="33" y2="58" stroke="black" stroke-width="2" stroke-dasharray="3 3" /> 
<line x1="59" y1="28" x2="89" y2="53" stroke="red" stroke-width="10" /> 
<line x1="33" y1="58" x2="61" y2="84" stroke="red" stroke-width="10" /> 
<line x1="89" y1="53" x2="61" y2="84" stroke="black" stroke-width="2" stroke-dasharray="3 3" /> 
<line x1="89" y1="53" x2="117" y2="80" stroke="red" stroke-width="10" /> 
<line x1="61" y1="84" x2="91" y2="109" stroke="red" stroke-width="10" /> 
<line x1="117" y1="80" x2="91" y2="109" stroke="red" stroke-width="10" /> 
<circle cx="59" cy="28" r="8" fill="white" stroke="black" stroke-width="2" />
<text x="57" y="30" font-family="Times New Roman" font-size="12">1</text>
<circle cx="33" cy="58" r="8" fill="white" stroke="black" stroke-width="2" />
<text x="31" y="60" font-family="Times New Roman" font-size="12">2</text>
<circle cx="89" cy="53" r="8" fill="white" stroke="black" stroke-width="2" />
<text x="87" y="55" font-family="Times New Roman" font-size="12">3</text>
<circle cx="61" cy="84" r="8" fill="white" stroke="black" stroke-width="2" />
<text x="59" y="86" font-family="Times New Roman" font-size="12">4</text>
<circle cx="117" cy="80" r="8" fill="white" stroke="black" stroke-width="2" />
<text x="115" y="82" font-family="Times New Roman" font-size="12">5</text>
<circle cx="91" cy="109" r="8" fill="white" stroke="black" stroke-width="2" />
<text x="89" y="111" font-family="Times New Roman" font-size="12">6</text>
<line x1="184" y1="28" x2="158" y2="58" stroke="black" stroke-width="2" stroke-dasharray="3 3" /> 
<line x1="184" y1="28" x2="214" y2="53" stroke="red" stroke-width="10" /> 
<line x1="158" y1="58" x2="186" y2="84" stroke="red" stroke-width="10" /> 
<line x1="214" y1="53" x2="186" y2="84" stroke="red" stroke-width="10" /> 
<line x1="214" y1="53" x2="242" y2="80" stroke="black" stroke-width="2" stroke-dasharray="3 3" /> 
<line x1="186" y1="84" x2="216" y2="109" stroke="red" stroke-width="10" /> 
<line x1="242" y1="80" x2="216" y2="109" stroke="red" stroke-width="10" /> 
<circle cx="184" cy="28" r="8" fill="white" stroke="black" stroke-width="2" />
<text x="182" y="30" font-family="Times New Roman" font-size="12">1</text>
<circle cx="158" cy="58" r="8" fill="white" stroke="black" stroke-width="2" />
<text x="156" y="60" font-family="Times New Roman" font-size="12">2</text>
<circle cx="214" cy="53" r="8" fill="white" stroke="black" stroke-width="2" />
<text x="212" y="55" font-family="Times New Roman" font-size="12">3</text>
<circle cx="186" cy="84" r="8" fill="white" stroke="black" stroke-width="2" />
<text x="184" y="86" font-family="Times New Roman" font-size="12">4</text>
<circle cx="242" cy="80" r="8" fill="white" stroke="black" stroke-width="2" />
<text x="240" y="82" font-family="Times New Roman" font-size="12">5</text>
<circle cx="216" cy="109" r="8" fill="white" stroke="black" stroke-width="2" />
<text x="214" y="111" font-family="Times New Roman" font-size="12">6</text>
<line x1="309" y1="28" x2="283" y2="58" stroke="black" stroke-width="2" stroke-dasharray="3 3" /> 
<line x1="309" y1="28" x2="339" y2="53" stroke="red" stroke-width="10" /> 
<line x1="283" y1="58" x2="311" y2="84" stroke="red" stroke-width="10" /> 
<line x1="339" y1="53" x2="311" y2="84" stroke="red" stroke-width="10" /> 
<line x1="339" y1="53" x2="367" y2="80" stroke="red" stroke-width="10" /> 
<line x1="311" y1="84" x2="341" y2="109" stroke="black" stroke-width="2" stroke-dasharray="3 3" /> 
<line x1="367" y1="80" x2="341" y2="109" stroke="red" stroke-width="10" /> 
<circle cx="309" cy="28" r="8" fill="white" stroke="black" stroke-width="2" />
<text x="307" y="30" font-family="Times New Roman" font-size="12">1</text>
<circle cx="283" cy="58" r="8" fill="white" stroke="black" stroke-width="2" />
<text x="281" y="60" font-family="Times New Roman" font-size="12">2</text>
<circle cx="339" cy="53" r="8" fill="white" stroke="black" stroke-width="2" />
<text x="337" y="55" font-family="Times New Roman" font-size="12">3</text>
<circle cx="311" cy="84" r="8" fill="white" stroke="black" stroke-width="2" />
<text x="309" y="86" font-family="Times New Roman" font-size="12">4</text>
<circle cx="367" cy="80" r="8" fill="white" stroke="black" stroke-width="2" />
<text x="365" y="82" font-family="Times New Roman" font-size="12">5</text>
<circle cx="341" cy="109" r="8" fill="white" stroke="black" stroke-width="2" />
<text x="339" y="111" font-family="Times New Roman" font-size="12">6</text>
<line x1="434" y1="28" x2="408" y2="58" stroke="black" stroke-width="2" stroke-dasharray="3 3" /> 
<line x1="434" y1="28" x2="464" y2="53" stroke="red" stroke-width="10" /> 
<line x1="408" y1="58" x2="436" y2="84" stroke="red" stroke-width="10" /> 
<line x1="464" y1="53" x2="436" y2="84" stroke="red" stroke-width="10" /> 
<line x1="464" y1="53" x2="492" y2="80" stroke="red" stroke-width="10" /> 
<line x1="436" y1="84" x2="466" y2="109" stroke="red" stroke-width="10" /> 
<line x1="492" y1="80" x2="466" y2="109" stroke="black" stroke-width="2" stroke-dasharray="3 3" /> 
<circle cx="434" cy="28" r="8" fill="white" stroke="black" stroke-width="2" />
<text x="432" y="30" font-family="Times New Roman" font-size="12">1</text>
<circle cx="408" cy="58" r="8" fill="white" stroke="black" stroke-width="2" />
<text x="406" y="60" font-family="Times New Roman" font-size="12">2</text>
<circle cx="464" cy="53" r="8" fill="white" stroke="black" stroke-width="2" />
<text x="462" y="55" font-family="Times New Roman" font-size="12">3</text>
<circle cx="436" cy="84" r="8" fill="white" stroke="black" stroke-width="2" />
<text x="434" y="86" font-family="Times New Roman" font-size="12">4</text>
<circle cx="492" cy="80" r="8" fill="white" stroke="black" stroke-width="2" />
<text x="490" y="82" font-family="Times New Roman" font-size="12">5</text>
<circle cx="466" cy="109" r="8" fill="white" stroke="black" stroke-width="2" />
<text x="464" y="111" font-family="Times New Roman" font-size="12">6</text>
<line x1="559" y1="28" x2="533" y2="58" stroke="red" stroke-width="10" /> 
<line x1="559" y1="28" x2="589" y2="53" stroke="black" stroke-width="2" stroke-dasharray="3 3" /> 
<line x1="533" y1="58" x2="561" y2="84" stroke="red" stroke-width="10" /> 
<line x1="589" y1="53" x2="561" y2="84" stroke="black" stroke-width="2" stroke-dasharray="3 3" /> 
<line x1="589" y1="53" x2="617" y2="80" stroke="red" stroke-width="10" /> 
<line x1="561" y1="84" x2="591" y2="109" stroke="red" stroke-width="10" /> 
<line x1="617" y1="80" x2="591" y2="109" stroke="red" stroke-width="10" /> 
<circle cx="559" cy="28" r="8" fill="white" stroke="black" stroke-width="2" />
<text x="557" y="30" font-family="Times New Roman" font-size="12">1</text>
<circle cx="533" cy="58" r="8" fill="white" stroke="black" stroke-width="2" />
<text x="531" y="60" font-family="Times New Roman" font-size="12">2</text>
<circle cx="589" cy="53" r="8" fill="white" stroke="black" stroke-width="2" />
<text x="587" y="55" font-family="Times New Roman" font-size="12">3</text>
<circle cx="561" cy="84" r="8" fill="white" stroke="black" stroke-width="2" />
<text x="559" y="86" font-family="Times New Roman" font-size="12">4</text>
<circle cx="617" cy="80" r="8" fill="white" stroke="black" stroke-width="2" />
<text x="615" y="82" font-family="Times New Roman" font-size="12">5</text>
<circle cx="591" cy="109" r="8" fill="white" stroke="black" stroke-width="2" />
<text x="589" y="111" font-family="Times New Roman" font-size="12">6</text>
<line x1="684" y1="28" x2="658" y2="58" stroke="red" stroke-width="10" /> 
<line x1="684" y1="28" x2="714" y2="53" stroke="black" stroke-width="2" stroke-dasharray="3 3" /> 
<line x1="658" y1="58" x2="686" y2="84" stroke="red" stroke-width="10" /> 
<line x1="714" y1="53" x2="686" y2="84" stroke="red" stroke-width="10" /> 
<line x1="714" y1="53" x2="742" y2="80" stroke="black" stroke-width="2" stroke-dasharray="3 3" /> 
<line x1="686" y1="84" x2="716" y2="109" stroke="red" stroke-width="10" /> 
<line x1="742" y1="80" x2="716" y2="109" stroke="red" stroke-width="10" /> 
<circle cx="684" cy="28" r="8" fill="white" stroke="black" stroke-width="2" />
<text x="682" y="30" font-family="Times New Roman" font-size="12">1</text>
<circle cx="658" cy="58" r="8" fill="white" stroke="black" stroke-width="2" />
<text x="656" y="60" font-family="Times New Roman" font-size="12">2</text>
<circle cx="714" cy="53" r="8" fill="white" stroke="black" stroke-width="2" />
<text x="712" y="55" font-family="Times New Roman" font-size="12">3</text>
<circle cx="686" cy="84" r="8" fill="white" stroke="black" stroke-width="2" />
<text x="684" y="86" font-family="Times New Roman" font-size="12">4</text>
<circle cx="742" cy="80" r="8" fill="white" stroke="black" stroke-width="2" />
<text x="740" y="82" font-family="Times New Roman" font-size="12">5</text>
<circle cx="716" cy="109" r="8" fill="white" stroke="black" stroke-width="2" />
<text x="714" y="111" font-family="Times New Roman" font-size="12">6</text>
<line x1="59" y1="145" x2="33" y2="175" stroke="red" stroke-width="10" /> 
<line x1="59" y1="145" x2="89" y2="170" stroke="black" stroke-width="2" stroke-dasharray="3 3" /> 
<line x1="33" y1="175" x2="61" y2="201" stroke="red" stroke-width="10" /> 
<line x1="89" y1="170" x2="61" y2="201" stroke="red" stroke-width="10" /> 
<line x1="89" y1="170" x2="117" y2="197" stroke="red" stroke-width="10" /> 
<line x1="61" y1="201" x2="91" y2="226" stroke="black" stroke-width="2" stroke-dasharray="3 3" /> 
<line x1="117" y1="197" x2="91" y2="226" stroke="red" stroke-width="10" /> 
<circle cx="59" cy="145" r="8" fill="white" stroke="black" stroke-width="2" />
<text x="57" y="147" font-family="Times New Roman" font-size="12">1</text>
<circle cx="33" cy="175" r="8" fill="white" stroke="black" stroke-width="2" />
<text x="31" y="177" font-family="Times New Roman" font-size="12">2</text>
<circle cx="89" cy="170" r="8" fill="white" stroke="black" stroke-width="2" />
<text x="87" y="172" font-family="Times New Roman" font-size="12">3</text>
<circle cx="61" cy="201" r="8" fill="white" stroke="black" stroke-width="2" />
<text x="59" y="203" font-family="Times New Roman" font-size="12">4</text>
<circle cx="117" cy="197" r="8" fill="white" stroke="black" stroke-width="2" />
<text x="115" y="199" font-family="Times New Roman" font-size="12">5</text>
<circle cx="91" cy="226" r="8" fill="white" stroke="black" stroke-width="2" />
<text x="89" y="228" font-family="Times New Roman" font-size="12">6</text>
<line x1="184" y1="145" x2="158" y2="175" stroke="red" stroke-width="10" /> 
<line x1="184" y1="145" x2="214" y2="170" stroke="black" stroke-width="2" stroke-dasharray="3 3" /> 
<line x1="158" y1="175" x2="186" y2="201" stroke="red" stroke-width="10" /> 
<line x1="214" y1="170" x2="186" y2="201" stroke="red" stroke-width="10" /> 
<line x1="214" y1="170" x2="242" y2="197" stroke="red" stroke-width="10" /> 
<line x1="186" y1="201" x2="216" y2="226" stroke="red" stroke-width="10" /> 
<line x1="242" y1="197" x2="216" y2="226" stroke="black" stroke-width="2" stroke-dasharray="3 3" /> 
<circle cx="184" cy="145" r="8" fill="white" stroke="black" stroke-width="2" />
<text x="182" y="147" font-family="Times New Roman" font-size="12">1</text>
<circle cx="158" cy="175" r="8" fill="white" stroke="black" stroke-width="2" />
<text x="156" y="177" font-family="Times New Roman" font-size="12">2</text>
<circle cx="214" cy="170" r="8" fill="white" stroke="black" stroke-width="2" />
<text x="212" y="172" font-family="Times New Roman" font-size="12">3</text>
<circle cx="186" cy="201" r="8" fill="white" stroke="black" stroke-width="2" />
<text x="184" y="203" font-family="Times New Roman" font-size="12">4</text>
<circle cx="242" cy="197" r="8" fill="white" stroke="black" stroke-width="2" />
<text x="240" y="199" font-family="Times New Roman" font-size="12">5</text>
<circle cx="216" cy="226" r="8" fill="white" stroke="black" stroke-width="2" />
<text x="214" y="228" font-family="Times New Roman" font-size="12">6</text>
<line x1="309" y1="145" x2="283" y2="175" stroke="red" stroke-width="10" /> 
<line x1="309" y1="145" x2="339" y2="170" stroke="red" stroke-width="10" /> 
<line x1="283" y1="175" x2="311" y2="201" stroke="black" stroke-width="2" stroke-dasharray="3 3" /> 
<line x1="339" y1="170" x2="311" y2="201" stroke="black" stroke-width="2" stroke-dasharray="3 3" /> 
<line x1="339" y1="170" x2="367" y2="197" stroke="red" stroke-width="10" /> 
<line x1="311" y1="201" x2="341" y2="226" stroke="red" stroke-width="10" /> 
<line x1="367" y1="197" x2="341" y2="226" stroke="red" stroke-width="10" /> 
<circle cx="309" cy="145" r="8" fill="white" stroke="black" stroke-width="2" />
<text x="307" y="147" font-family="Times New Roman" font-size="12">1</text>
<circle cx="283" cy="175" r="8" fill="white" stroke="black" stroke-width="2" />
<text x="281" y="177" font-family="Times New Roman" font-size="12">2</text>
<circle cx="339" cy="170" r="8" fill="white" stroke="black" stroke-width="2" />
<text x="337" y="172" font-family="Times New Roman" font-size="12">3</text>
<circle cx="311" cy="201" r="8" fill="white" stroke="black" stroke-width="2" />
<text x="309" y="203" font-family="Times New Roman" font-size="12">4</text>
<circle cx="367" cy="197" r="8" fill="white" stroke="black" stroke-width="2" />
<text x="365" y="199" font-family="Times New Roman" font-size="12">5</text>
<circle cx="341" cy="226" r="8" fill="white" stroke="black" stroke-width="2" />
<text x="339" y="228" font-family="Times New Roman" font-size="12">6</text>
<line x1="434" y1="145" x2="408" y2="175" stroke="red" stroke-width="10" /> 
<line x1="434" y1="145" x2="464" y2="170" stroke="red" stroke-width="10" /> 
<line x1="408" y1="175" x2="436" y2="201" stroke="black" stroke-width="2" stroke-dasharray="3 3" /> 
<line x1="464" y1="170" x2="436" y2="201" stroke="red" stroke-width="10" /> 
<line x1="464" y1="170" x2="492" y2="197" stroke="black" stroke-width="2" stroke-dasharray="3 3" /> 
<line x1="436" y1="201" x2="466" y2="226" stroke="red" stroke-width="10" /> 
<line x1="492" y1="197" x2="466" y2="226" stroke="red" stroke-width="10" /> 
<circle cx="434" cy="145" r="8" fill="white" stroke="black" stroke-width="2" />
<text x="432" y="147" font-family="Times New Roman" font-size="12">1</text>
<circle cx="408" cy="175" r="8" fill="white" stroke="black" stroke-width="2" />
<text x="406" y="177" font-family="Times New Roman" font-size="12">2</text>
<circle cx="464" cy="170" r="8" fill="white" stroke="black" stroke-width="2" />
<text x="462" y="172" font-family="Times New Roman" font-size="12">3</text>
<circle cx="436" cy="201" r="8" fill="white" stroke="black" stroke-width="2" />
<text x="434" y="203" font-family="Times New Roman" font-size="12">4</text>
<circle cx="492" cy="197" r="8" fill="white" stroke="black" stroke-width="2" />
<text x="490" y="199" font-family="Times New Roman" font-size="12">5</text>
<circle cx="466" cy="226" r="8" fill="white" stroke="black" stroke-width="2" />
<text x="464" y="228" font-family="Times New Roman" font-size="12">6</text>
<line x1="559" y1="145" x2="533" y2="175" stroke="red" stroke-width="10" /> 
<line x1="559" y1="145" x2="589" y2="170" stroke="red" stroke-width="10" /> 
<line x1="533" y1="175" x2="561" y2="201" stroke="black" stroke-width="2" stroke-dasharray="3 3" /> 
<line x1="589" y1="170" x2="561" y2="201" stroke="red" stroke-width="10" /> 
<line x1="589" y1="170" x2="617" y2="197" stroke="red" stroke-width="10" /> 
<line x1="561" y1="201" x2="591" y2="226" stroke="black" stroke-width="2" stroke-dasharray="3 3" /> 
<line x1="617" y1="197" x2="591" y2="226" stroke="red" stroke-width="10" /> 
<circle cx="559" cy="145" r="8" fill="white" stroke="black" stroke-width="2" />
<text x="557" y="147" font-family="Times New Roman" font-size="12">1</text>
<circle cx="533" cy="175" r="8" fill="white" stroke="black" stroke-width="2" />
<text x="531" y="177" font-family="Times New Roman" font-size="12">2</text>
<circle cx="589" cy="170" r="8" fill="white" stroke="black" stroke-width="2" />
<text x="587" y="172" font-family="Times New Roman" font-size="12">3</text>
<circle cx="561" cy="201" r="8" fill="white" stroke="black" stroke-width="2" />
<text x="559" y="203" font-family="Times New Roman" font-size="12">4</text>
<circle cx="617" cy="197" r="8" fill="white" stroke="black" stroke-width="2" />
<text x="615" y="199" font-family="Times New Roman" font-size="12">5</text>
<circle cx="591" cy="226" r="8" fill="white" stroke="black" stroke-width="2" />
<text x="589" y="228" font-family="Times New Roman" font-size="12">6</text>
<line x1="684" y1="145" x2="658" y2="175" stroke="red" stroke-width="10" /> 
<line x1="684" y1="145" x2="714" y2="170" stroke="red" stroke-width="10" /> 
<line x1="658" y1="175" x2="686" y2="201" stroke="black" stroke-width="2" stroke-dasharray="3 3" /> 
<line x1="714" y1="170" x2="686" y2="201" stroke="red" stroke-width="10" /> 
<line x1="714" y1="170" x2="742" y2="197" stroke="red" stroke-width="10" /> 
<line x1="686" y1="201" x2="716" y2="226" stroke="red" stroke-width="10" /> 
<line x1="742" y1="197" x2="716" y2="226" stroke="black" stroke-width="2" stroke-dasharray="3 3" /> 
<circle cx="684" cy="145" r="8" fill="white" stroke="black" stroke-width="2" />
<text x="682" y="147" font-family="Times New Roman" font-size="12">1</text>
<circle cx="658" cy="175" r="8" fill="white" stroke="black" stroke-width="2" />
<text x="656" y="177" font-family="Times New Roman" font-size="12">2</text>
<circle cx="714" cy="170" r="8" fill="white" stroke="black" stroke-width="2" />
<text x="712" y="172" font-family="Times New Roman" font-size="12">3</text>
<circle cx="686" cy="201" r="8" fill="white" stroke="black" stroke-width="2" />
<text x="684" y="203" font-family="Times New Roman" font-size="12">4</text>
<circle cx="742" cy="197" r="8" fill="white" stroke="black" stroke-width="2" />
<text x="740" y="199" font-family="Times New Roman" font-size="12">5</text>
<circle cx="716" cy="226" r="8" fill="white" stroke="black" stroke-width="2" />
<text x="714" y="228" font-family="Times New Roman" font-size="12">6</text>
<line x1="59" y1="262" x2="33" y2="292" stroke="red" stroke-width="10" /> 
<line x1="59" y1="262" x2="89" y2="287" stroke="red" stroke-width="10" /> 
<line x1="33" y1="292" x2="61" y2="318" stroke="red" stroke-width="10" /> 
<line x1="89" y1="287" x2="61" y2="318" stroke="black" stroke-width="2" stroke-dasharray="3 3" /> 
<line x1="89" y1="287" x2="117" y2="314" stroke="black" stroke-width="2" stroke-dasharray="3 3" /> 
<line x1="61" y1="318" x2="91" y2="343" stroke="red" stroke-width="10" /> 
<line x1="117" y1="314" x2="91" y2="343" stroke="red" stroke-width="10" /> 
<circle cx="59" cy="262" r="8" fill="white" stroke="black" stroke-width="2" />
<text x="57" y="264" font-family="Times New Roman" font-size="12">1</text>
<circle cx="33" cy="292" r="8" fill="white" stroke="black" stroke-width="2" />
<text x="31" y="294" font-family="Times New Roman" font-size="12">2</text>
<circle cx="89" cy="287" r="8" fill="white" stroke="black" stroke-width="2" />
<text x="87" y="289" font-family="Times New Roman" font-size="12">3</text>
<circle cx="61" cy="318" r="8" fill="white" stroke="black" stroke-width="2" />
<text x="59" y="320" font-family="Times New Roman" font-size="12">4</text>
<circle cx="117" cy="314" r="8" fill="white" stroke="black" stroke-width="2" />
<text x="115" y="316" font-family="Times New Roman" font-size="12">5</text>
<circle cx="91" cy="343" r="8" fill="white" stroke="black" stroke-width="2" />
<text x="89" y="345" font-family="Times New Roman" font-size="12">6</text>
<line x1="184" y1="262" x2="158" y2="292" stroke="red" stroke-width="10" /> 
<line x1="184" y1="262" x2="214" y2="287" stroke="red" stroke-width="10" /> 
<line x1="158" y1="292" x2="186" y2="318" stroke="red" stroke-width="10" /> 
<line x1="214" y1="287" x2="186" y2="318" stroke="black" stroke-width="2" stroke-dasharray="3 3" /> 
<line x1="214" y1="287" x2="242" y2="314" stroke="red" stroke-width="10" /> 
<line x1="186" y1="318" x2="216" y2="343" stroke="black" stroke-width="2" stroke-dasharray="3 3" /> 
<line x1="242" y1="314" x2="216" y2="343" stroke="red" stroke-width="10" /> 
<circle cx="184" cy="262" r="8" fill="white" stroke="black" stroke-width="2" />
<text x="182" y="264" font-family="Times New Roman" font-size="12">1</text>
<circle cx="158" cy="292" r="8" fill="white" stroke="black" stroke-width="2" />
<text x="156" y="294" font-family="Times New Roman" font-size="12">2</text>
<circle cx="214" cy="287" r="8" fill="white" stroke="black" stroke-width="2" />
<text x="212" y="289" font-family="Times New Roman" font-size="12">3</text>
<circle cx="186" cy="318" r="8" fill="white" stroke="black" stroke-width="2" />
<text x="184" y="320" font-family="Times New Roman" font-size="12">4</text>
<circle cx="242" cy="314" r="8" fill="white" stroke="black" stroke-width="2" />
<text x="240" y="316" font-family="Times New Roman" font-size="12">5</text>
<circle cx="216" cy="343" r="8" fill="white" stroke="black" stroke-width="2" />
<text x="214" y="345" font-family="Times New Roman" font-size="12">6</text>
<line x1="309" y1="262" x2="283" y2="292" stroke="red" stroke-width="10" /> 
<line x1="309" y1="262" x2="339" y2="287" stroke="red" stroke-width="10" /> 
<line x1="283" y1="292" x2="311" y2="318" stroke="red" stroke-width="10" /> 
<line x1="339" y1="287" x2="311" y2="318" stroke="black" stroke-width="2" stroke-dasharray="3 3" /> 
<line x1="339" y1="287" x2="367" y2="314" stroke="red" stroke-width="10" /> 
<line x1="311" y1="318" x2="341" y2="343" stroke="red" stroke-width="10" /> 
<line x1="367" y1="314" x2="341" y2="343" stroke="black" stroke-width="2" stroke-dasharray="3 3" /> 
<circle cx="309" cy="262" r="8" fill="white" stroke="black" stroke-width="2" />
<text x="307" y="264" font-family="Times New Roman" font-size="12">1</text>
<circle cx="283" cy="292" r="8" fill="white" stroke="black" stroke-width="2" />
<text x="281" y="294" font-family="Times New Roman" font-size="12">2</text>
<circle cx="339" cy="287" r="8" fill="white" stroke="black" stroke-width="2" />
<text x="337" y="289" font-family="Times New Roman" font-size="12">3</text>
<circle cx="311" cy="318" r="8" fill="white" stroke="black" stroke-width="2" />
<text x="309" y="320" font-family="Times New Roman" font-size="12">4</text>
<circle cx="367" cy="314" r="8" fill="white" stroke="black" stroke-width="2" />
<text x="365" y="316" font-family="Times New Roman" font-size="12">5</text>
<circle cx="341" cy="343" r="8" fill="white" stroke="black" stroke-width="2" />
<text x="339" y="345" font-family="Times New Roman" font-size="12">6</text>

</svg>
